<?xml version="1.0" encoding="utf-8"?>
<!-- Generator: Adobe Illustrator 25.0.1, SVG Export Plug-In . SVG Version: 6.00 Build 0)  -->
<svg version="1.1" id="Layer_1" xmlns="http://www.w3.org/2000/svg" xmlns:xlink="http://www.w3.org/1999/xlink" x="0px" y="0px"
	 viewBox="0 0 982.2 992.1" style="enable-background:new 0 0 982.2 992.1;" xml:space="preserve">
<style type="text/css">
	.st0{fill:#FFFFFF;}
</style>
<g>
	<g>
		<path class="st0" d="M42.7,980.3c-0.8,0-1.5,0-2.3,0c-13-0.3-24-8.9-27.4-21.5c-0.3-1-0.6-1.9-0.9-2.7V37.3
			c0.2-0.4,0.3-0.8,0.4-1.3c4.2-16.3,14.1-23.9,31.1-23.9c149.2,0,298.4,0,447.6,0s298.4,0,447.6,0c20,0,31.5,11.6,31.5,31.7
			c0,39.2,0,78.4,0,117.6l0,120.5c0,218.1,0,443.7-0.1,665.6c0,3.2-0.1,8-1.2,12.1c-3.6,13.4-14.5,20.8-30.6,20.8L42.7,980.3z"/>
		<path d="M492.3,22.6c148.8,0,297.6,0,446.4,0c14.1,0,21,6.9,21,21.2c0,39.2,0,78.5,0,117.7l0,48.1l0,73c0,217.9,0,443.2-0.1,664.9
			c0,4.1-0.3,7.2-0.9,9.3c-2.3,8.6-9.2,13-20.5,13c-165.9,0-331.7,0-497.6,0l-396.5,0l-0.7,0l-0.7,0c-0.7,0-1.4,0-2.1,0
			c-8.4-0.2-15.3-5.6-17.5-13.8c-0.2-0.6-0.3-1.2-0.5-1.7V39c0-0.1,0.1-0.2,0.1-0.3c3-11.7,8.7-16,20.9-16
			C193.1,22.6,342.7,22.6,492.3,22.6 M492.3,1.6c-149.5,0-299.2,0-448.7,0C21.7,1.6,7.7,12.5,2.3,33.4c-0.1,0.4-0.5,0.8-0.7,1.2
			c0,307.7,0,615.5,0,923.2c0.4,1.2,0.9,2.4,1.2,3.7c4.6,17.1,19.6,28.9,37.3,29.3c0.9,0,1.7,0,2.6,0c0.5,0,1,0,1.4,0
			c132.2,0,264.3,0,396.5,0c165.9,0,331.7,0,497.6,0c20.7,0,35.9-10.5,40.8-28.5c1.3-4.7,1.6-9.9,1.6-14.8
			c0.1-245.9,0.1-491.9,0.1-737.8c0-55.3,0-110.6,0-165.9c0-25.9-16.2-42.2-42-42.2C789.8,1.6,641.1,1.6,492.3,1.6L492.3,1.6z"/>
	</g>
</g>
</svg>
